<?xml version="1.0" standalone="no"?>
<!DOCTYPE svg PUBLIC "-//W3C//DTD SVG 20010904//EN"
 "http://www.w3.org/TR/2001/REC-SVG-20010904/DTD/svg10.dtd">
<svg version="1.0" xmlns="http://www.w3.org/2000/svg"
 width="150.000000pt" height="150.000000pt" viewBox="0 0 150.000000 150.000000"
 preserveAspectRatio="xMidYMid meet">

<g transform="translate(0.000000,150.000000) scale(0.100000,-0.100000)"
fill="#000000" stroke="none">
<path d="M590 1351 c-28 -15 -42 -34 -72 -102 l-37 -84 -138 -5 -138 -5 0 -45
0 -45 53 -3 52 -3 0 -410 c0 -443 1 -449 55 -499 l27 -25 383 0 383 0 27 25
c54 50 55 56 55 499 l0 410 53 3 52 3 0 45 0 45 -139 5 -139 5 -36 84 c-50
116 -60 121 -256 121 -127 0 -156 -3 -185 -19z m345 -123 c9 -24 19 -49 22
-55 4 -10 -36 -13 -181 -13 -102 0 -186 2 -186 4 0 8 39 92 46 99 4 4 69 7
145 7 l137 0 17 -42z m205 -576 c0 -304 -3 -411 -12 -420 -17 -17 -689 -17
-706 0 -9 9 -12 116 -12 420 l0 408 365 0 365 0 0 -408z"/>
<path d="M525 887 c-3 -7 -4 -123 -3 -257 l3 -245 33 -3 c61 -6 62 -4 62 253
0 129 -3 240 -6 249 -8 20 -82 22 -89 3z"/>
<path d="M732 643 l3 -258 40 0 40 0 0 255 0 255 -43 3 -42 3 2 -258z"/>
<path d="M936 885 c-3 -9 -6 -121 -6 -250 0 -257 1 -259 62 -253 l33 3 0 255
0 255 -41 3 c-31 2 -43 -1 -48 -13z"/>
</g>
</svg>
