<?xml version="1.0" standalone="no"?>
<!DOCTYPE svg PUBLIC "-//W3C//DTD SVG 20010904//EN"
 "http://www.w3.org/TR/2001/REC-SVG-20010904/DTD/svg10.dtd">
<svg version="1.0" xmlns="http://www.w3.org/2000/svg"
 width="512.000000pt" height="512.000000pt" viewBox="0 0 512.000000 512.000000"
 preserveAspectRatio="xMidYMid meet">

<g transform="translate(0.000000,512.000000) scale(0.100000,-0.100000)"
fill="#000000" stroke="none">
<path d="M1045 5106 c-366 -71 -686 -369 -775 -721 -34 -134 -64 -619 -82
-1343 -20 -826 24 -2080 82 -2307 82 -324 356 -599 695 -701 76 -23 110 -27
220 -28 176 -1 208 10 610 209 852 424 1733 934 2545 1474 205 137 283 194
345 256 336 338 336 892 0 1230 -173 173 -1150 789 -2010 1268 -480 267 -1154
607 -1280 647 -89 28 -251 35 -350 16z m406 -455 c745 -352 1821 -968 2654
-1520 342 -226 403 -290 440 -466 18 -88 18 -122 0 -210 -37 -174 -99 -240
-425 -456 -842 -558 -1884 -1157 -2650 -1521 l-195 -93 -90 1 c-72 0 -103 6
-157 27 -203 79 -363 260 -396 448 -13 72 -36 430 -54 834 -15 348 -15 1393 0
1735 21 453 42 772 57 842 54 256 325 476 571 465 66 -4 86 -11 245 -86z"/>
</g>
</svg>
