<svg xmlns="http://www.w3.org/2000/svg" viewBox="0 0 512 512" fill="#ffffff">
  <g transform="translate(50,50) scale(0.8)">
    <path
      d="M104.5 510.6c-36.6-7.1-68.6-36.9-77.5-72.1-3.4-13.4-6.4-61.9-8.2-134.3-2-82.6 2.4-208 8.2-230.7 8.2-32.4 35.6-59.9 69.5-70.1 7.6-2.3 11-2.7 22-2.8 17.6-.1 20.8 1 61 20.9 85.2 42.4 173.3 93.4 254.5 147.4 20.5 13.7 28.3 19.4 34.5 25.6 33.6 33.8 33.6 89.2 0 123 -17.3 17.3-115 78.9-201 126.8-48 26.7-115.4 60.7-128 64.7-8.9 2.8-25.1 3.5-35 1.6zM145.1 455c74.5-35.2 182.1-96.8 265.4-152 34.2-22.6 40.3-29 44-46.6 1.8-8.8 1.8-12.2 0-21-3.7-17.4-9.9-24-42.5-45.6-84.2-55.8-188.4-115.7-265-152.1l-19.5-9.3-9 .1c-7.2 0-10.3.6-15.7 2.7-20.3 7.9-36.3 26-39.6 44.8-1.3 7.2-3.6 43-5.4 83.4-1.5 34.8-1.5 139.3 0 173.5 2.1 45.3 4.2 77.2 5.7 84.2 5.4 25.6 32.5 47.6 57.1 46.5 6.6-.4 8.6-1.1 24.5-8.6z"
      stroke="#ffffff"
      stroke-width="8"
      stroke-linejoin="round"
      stroke-linecap="round"
      fill="#ffffff"
    />
  </g>
</svg>
